<svg width="585" height="424" viewBox="0 0 585 424" fill="none" xmlns="http://www.w3.org/2000/svg">
<g clip-path="url(#clip0_1_80)">
<path d="M340.762 74.7463C351.725 74.7463 360.614 65.889 360.614 54.963C360.614 44.037 351.725 35.1797 340.762 35.1797C329.798 35.1797 320.91 44.037 320.91 54.963C320.91 65.889 329.798 74.7463 340.762 74.7463Z" fill="#F2F2F2"/>
<path d="M494.76 368.352C524.267 345.955 538.361 308.318 529.538 272.416C529.319 271.523 529.087 270.633 528.844 269.745C522.994 248.434 508.523 228.179 487.431 221.369C469.721 215.652 450.39 220.049 431.914 217.775C395.645 213.311 367.527 184.067 347.742 153.448C327.957 122.829 312.751 88.5556 286.461 63.2598C243.127 21.564 172.437 12.5869 118.708 39.7277C64.9794 66.8687 30.7547 127.083 32.2143 187.094C33.6739 247.105 69.4237 304.48 121.341 334.921C140.414 346.104 162.473 354.026 184.426 351.254C203.474 348.849 220.782 338.649 239.741 335.621C269.549 330.86 299.167 344.29 324.948 359.941C350.729 375.591 375.633 394.142 404.93 401.397C433.377 408.442 468.62 388.193 494.76 368.352Z" fill="#F2F2F2"/>
<path d="M452.364 40.9879C451.717 40.5582 451.063 40.1507 450.416 39.7358C431.718 27.8186 411.676 18.1371 390.706 10.8915L385.843 77.7378H355.018V1.13357C353.077 0.733469 351.122 0.355598 349.167 -4.57764e-05V77.7378H312.534C292.368 77.7378 273.027 69.7545 258.768 55.544C244.508 41.3336 236.497 22.0601 236.497 1.96349V1.96342C234.534 2.38575 232.586 2.83772 230.638 3.31932V77.7378H200.801L196.169 13.996C174.619 22.2324 154.159 33.0636 135.247 46.2485C134.92 46.4708 134.593 46.7005 134.273 46.9227C132.63 48.0712 131.009 49.2418 129.396 50.4273V305.446H217.329L215.775 283.996L207.225 166.226H379.412L370.862 283.996L369.308 305.446H456.268V43.5664C454.974 42.6921 453.673 41.8326 452.364 40.9879ZM230.638 146.777H205.812L201.225 83.5763H230.638V146.777ZM349.167 146.777H307.471V145.525C307.471 144.923 307.352 144.327 307.121 143.771C306.889 143.215 306.55 142.71 306.123 142.285C305.695 141.859 305.188 141.522 304.63 141.292C304.071 141.063 303.473 140.945 302.869 140.946H284.742C284.139 140.946 283.541 141.064 282.984 141.294C282.426 141.524 281.919 141.861 281.493 142.287C281.066 142.712 280.728 143.217 280.497 143.772C280.266 144.328 280.147 144.924 280.148 145.525V146.777H236.497V83.5763H349.167V146.777ZM355.018 146.777V83.5763H385.42L380.832 146.777H355.018Z" fill="#3F3D56"/>
<path d="M0 321.777C6.45897 329.404 13.4451 336.571 20.9072 343.227L564.093 343.968C571.555 337.312 578.541 330.144 585 322.518L0 321.777Z" fill="#3F3D56"/>
<path d="M368.352 253.094V316.594C368.352 317.403 368.675 318.179 369.25 318.751C369.824 319.323 370.602 319.645 371.414 319.646H465.842C466.654 319.645 467.433 319.323 468.007 318.751C468.581 318.179 468.904 317.403 468.905 316.594V253.094C468.903 252.285 468.579 251.51 468.005 250.939C467.431 250.367 466.653 250.046 465.842 250.045H371.414C370.603 250.046 369.825 250.367 369.251 250.939C368.677 251.51 368.354 252.285 368.352 253.094Z" fill="#3F3D56"/>
<path d="M370.567 253.884V315.81C370.568 316.243 370.74 316.657 371.047 316.963C371.354 317.269 371.77 317.441 372.204 317.441H465.056C465.49 317.441 465.906 317.269 466.212 316.963C466.519 316.657 466.692 316.243 466.693 315.81V253.884C466.693 253.451 466.52 253.036 466.213 252.729C465.907 252.423 465.49 252.25 465.056 252.249H372.204C371.769 252.25 371.353 252.423 371.046 252.729C370.739 253.036 370.567 253.451 370.567 253.884Z" fill="#56468F"/>
<path d="M366.377 328.978C366.55 329.194 366.77 329.368 367.02 329.488C367.27 329.607 367.544 329.668 367.822 329.667H468.932C469.208 329.667 469.481 329.605 469.731 329.486C469.98 329.367 470.2 329.195 470.374 328.981C470.549 328.767 470.673 328.517 470.738 328.249C470.803 327.981 470.807 327.702 470.75 327.433L469.181 320.003C469.116 319.7 468.976 319.418 468.773 319.183C468.571 318.948 468.313 318.767 468.022 318.656C467.812 318.574 467.588 318.532 467.362 318.532H369.385C369.159 318.532 368.935 318.574 368.725 318.656C368.434 318.767 368.176 318.948 367.974 319.183C367.772 319.418 367.631 319.7 367.566 320.003L365.997 327.433C365.941 327.702 365.946 327.981 366.012 328.248C366.078 328.515 366.202 328.765 366.377 328.978Z" fill="#2F2E41"/>
<path d="M463.893 321.732H466.281C466.482 321.732 466.644 321.57 466.644 321.37V320.232C466.644 320.032 466.482 319.87 466.281 319.87H463.893C463.692 319.87 463.53 320.032 463.53 320.232V321.37C463.53 321.57 463.692 321.732 463.893 321.732Z" fill="#3F3D56"/>
<path d="M457.665 321.732H460.053C460.253 321.732 460.416 321.57 460.416 321.37V320.232C460.416 320.032 460.253 319.87 460.053 319.87H457.665C457.464 319.87 457.302 320.032 457.302 320.232V321.37C457.302 321.57 457.464 321.732 457.665 321.732Z" fill="#3F3D56"/>
<path d="M451.436 321.732H453.825C454.025 321.732 454.188 321.57 454.188 321.37V320.232C454.188 320.032 454.025 319.87 453.825 319.87H451.436C451.236 319.87 451.073 320.032 451.073 320.232V321.37C451.073 321.57 451.236 321.732 451.436 321.732Z" fill="#3F3D56"/>
<path d="M445.208 321.732H447.596C447.797 321.732 447.959 321.57 447.959 321.37V320.232C447.959 320.032 447.797 319.87 447.596 319.87H445.208C445.008 319.87 444.845 320.032 444.845 320.232V321.37C444.845 321.57 445.008 321.732 445.208 321.732Z" fill="#3F3D56"/>
<path d="M438.98 321.732H441.368C441.568 321.732 441.731 321.57 441.731 321.37V320.232C441.731 320.032 441.568 319.87 441.368 319.87H438.98C438.779 319.87 438.617 320.032 438.617 320.232V321.37C438.617 321.57 438.779 321.732 438.98 321.732Z" fill="#3F3D56"/>
<path d="M432.752 321.732H435.14C435.34 321.732 435.503 321.57 435.503 321.37V320.232C435.503 320.032 435.34 319.87 435.14 319.87H432.752C432.551 319.87 432.389 320.032 432.389 320.232V321.37C432.389 321.57 432.551 321.732 432.752 321.732Z" fill="#3F3D56"/>
<path d="M426.523 321.732H428.911C429.112 321.732 429.274 321.57 429.274 321.37V320.232C429.274 320.032 429.112 319.87 428.911 319.87H426.523C426.323 319.87 426.16 320.032 426.16 320.232V321.37C426.16 321.57 426.323 321.732 426.523 321.732Z" fill="#3F3D56"/>
<path d="M420.295 321.732H422.683C422.884 321.732 423.046 321.57 423.046 321.37V320.232C423.046 320.032 422.884 319.87 422.683 319.87H420.295C420.094 319.87 419.932 320.032 419.932 320.232V321.37C419.932 321.57 420.094 321.732 420.295 321.732Z" fill="#3F3D56"/>
<path d="M414.067 321.732H416.455C416.655 321.732 416.818 321.57 416.818 321.37V320.232C416.818 320.032 416.655 319.87 416.455 319.87H414.067C413.866 319.87 413.704 320.032 413.704 320.232V321.37C413.704 321.57 413.866 321.732 414.067 321.732Z" fill="#3F3D56"/>
<path d="M407.838 321.732H410.227C410.427 321.732 410.59 321.57 410.59 321.37V320.232C410.59 320.032 410.427 319.87 410.227 319.87H407.838C407.638 319.87 407.475 320.032 407.475 320.232V321.37C407.475 321.57 407.638 321.732 407.838 321.732Z" fill="#3F3D56"/>
<path d="M401.61 321.732H403.998C404.199 321.732 404.361 321.57 404.361 321.37V320.232C404.361 320.032 404.199 319.87 403.998 319.87H401.61C401.41 319.87 401.247 320.032 401.247 320.232V321.37C401.247 321.57 401.41 321.732 401.61 321.732Z" fill="#3F3D56"/>
<path d="M395.382 321.732H397.77C397.971 321.732 398.133 321.57 398.133 321.37V320.232C398.133 320.032 397.971 319.87 397.77 319.87H395.382C395.181 319.87 395.019 320.032 395.019 320.232V321.37C395.019 321.57 395.181 321.732 395.382 321.732Z" fill="#3F3D56"/>
<path d="M389.154 321.732H391.542C391.742 321.732 391.905 321.57 391.905 321.37V320.232C391.905 320.032 391.742 319.87 391.542 319.87H389.154C388.953 319.87 388.791 320.032 388.791 320.232V321.37C388.791 321.57 388.953 321.732 389.154 321.732Z" fill="#3F3D56"/>
<path d="M382.925 321.732H385.314C385.514 321.732 385.677 321.57 385.677 321.37V320.232C385.677 320.032 385.514 319.87 385.314 319.87H382.925C382.725 319.87 382.562 320.032 382.562 320.232V321.37C382.562 321.57 382.725 321.732 382.925 321.732Z" fill="#3F3D56"/>
<path d="M376.697 321.732H379.085C379.286 321.732 379.448 321.57 379.448 321.37V320.232C379.448 320.032 379.286 319.87 379.085 319.87H376.697C376.497 319.87 376.334 320.032 376.334 320.232V321.37C376.334 321.57 376.497 321.732 376.697 321.732Z" fill="#3F3D56"/>
<path d="M370.469 321.732H372.857C373.057 321.732 373.22 321.57 373.22 321.37V320.232C373.22 320.032 373.057 319.87 372.857 319.87H370.469C370.268 319.87 370.106 320.032 370.106 320.232V321.37C370.106 321.57 370.268 321.732 370.469 321.732Z" fill="#3F3D56"/>
<path d="M463.966 324.835H466.355C466.555 324.835 466.718 324.673 466.718 324.474V323.335C466.718 323.135 466.555 322.973 466.355 322.973H463.966C463.766 322.973 463.603 323.135 463.603 323.335V324.474C463.603 324.673 463.766 324.835 463.966 324.835Z" fill="#3F3D56"/>
<path d="M457.738 324.835H460.126C460.327 324.835 460.489 324.673 460.489 324.474V323.335C460.489 323.135 460.327 322.973 460.126 322.973H457.738C457.538 322.973 457.375 323.135 457.375 323.335V324.474C457.375 324.673 457.538 324.835 457.738 324.835Z" fill="#3F3D56"/>
<path d="M451.51 324.835H453.898C454.099 324.835 454.261 324.673 454.261 324.474V323.335C454.261 323.135 454.099 322.973 453.898 322.973H451.51C451.309 322.973 451.147 323.135 451.147 323.335V324.474C451.147 324.673 451.309 324.835 451.51 324.835Z" fill="#3F3D56"/>
<path d="M445.282 324.835H447.67C447.87 324.835 448.033 324.673 448.033 324.474V323.335C448.033 323.135 447.87 322.973 447.67 322.973H445.282C445.081 322.973 444.919 323.135 444.919 323.335V324.474C444.919 324.673 445.081 324.835 445.282 324.835Z" fill="#3F3D56"/>
<path d="M439.053 324.835H441.442C441.642 324.835 441.805 324.673 441.805 324.474V323.335C441.805 323.135 441.642 322.973 441.442 322.973H439.053C438.853 322.973 438.69 323.135 438.69 323.335V324.474C438.69 324.673 438.853 324.835 439.053 324.835Z" fill="#3F3D56"/>
<path d="M432.825 324.835H435.213C435.414 324.835 435.576 324.673 435.576 324.474V323.335C435.576 323.135 435.414 322.973 435.213 322.973H432.825C432.625 322.973 432.462 323.135 432.462 323.335V324.474C432.462 324.673 432.625 324.835 432.825 324.835Z" fill="#3F3D56"/>
<path d="M426.597 324.835H428.985C429.185 324.835 429.348 324.673 429.348 324.474V323.335C429.348 323.135 429.185 322.973 428.985 322.973H426.597C426.396 322.973 426.234 323.135 426.234 323.335V324.474C426.234 324.673 426.396 324.835 426.597 324.835Z" fill="#3F3D56"/>
<path d="M420.368 324.835H422.757C422.957 324.835 423.12 324.673 423.12 324.474V323.335C423.12 323.135 422.957 322.973 422.757 322.973H420.368C420.168 322.973 420.005 323.135 420.005 323.335V324.474C420.005 324.673 420.168 324.835 420.368 324.835Z" fill="#3F3D56"/>
<path d="M414.14 324.835H416.528C416.729 324.835 416.891 324.673 416.891 324.474V323.335C416.891 323.135 416.729 322.973 416.528 322.973H414.14C413.94 322.973 413.777 323.135 413.777 323.335V324.474C413.777 324.673 413.94 324.835 414.14 324.835Z" fill="#3F3D56"/>
<path d="M407.912 324.835H410.3C410.501 324.835 410.663 324.673 410.663 324.474V323.335C410.663 323.135 410.501 322.973 410.3 322.973H407.912C407.712 322.973 407.549 323.135 407.549 323.335V324.474C407.549 324.673 407.712 324.835 407.912 324.835Z" fill="#3F3D56"/>
<path d="M401.684 324.835H404.072C404.272 324.835 404.435 324.673 404.435 324.474V323.335C404.435 323.135 404.272 322.973 404.072 322.973H401.684C401.483 322.973 401.321 323.135 401.321 323.335V324.474C401.321 324.673 401.483 324.835 401.684 324.835Z" fill="#3F3D56"/>
<path d="M395.455 324.835H397.844C398.044 324.835 398.207 324.673 398.207 324.474V323.335C398.207 323.135 398.044 322.973 397.844 322.973H395.455C395.255 322.973 395.093 323.135 395.093 323.335V324.474C395.093 324.673 395.255 324.835 395.455 324.835Z" fill="#3F3D56"/>
<path d="M389.227 324.835H391.615C391.816 324.835 391.978 324.673 391.978 324.474V323.335C391.978 323.135 391.816 322.973 391.615 322.973H389.227C389.027 322.973 388.864 323.135 388.864 323.335V324.474C388.864 324.673 389.027 324.835 389.227 324.835Z" fill="#3F3D56"/>
<path d="M382.999 324.835H385.387C385.587 324.835 385.75 324.673 385.75 324.474V323.335C385.75 323.135 385.587 322.973 385.387 322.973H382.999C382.798 322.973 382.636 323.135 382.636 323.335V324.474C382.636 324.673 382.798 324.835 382.999 324.835Z" fill="#3F3D56"/>
<path d="M376.771 324.835H379.159C379.359 324.835 379.522 324.673 379.522 324.474V323.335C379.522 323.135 379.359 322.973 379.159 322.973H376.771C376.57 322.973 376.408 323.135 376.408 323.335V324.474C376.408 324.673 376.57 324.835 376.771 324.835Z" fill="#3F3D56"/>
<path d="M370.542 324.835H372.93C373.131 324.835 373.293 324.673 373.293 324.474V323.335C373.293 323.135 373.131 322.973 372.93 322.973H370.542C370.342 322.973 370.179 323.135 370.179 323.335V324.474C370.179 324.673 370.342 324.835 370.542 324.835Z" fill="#3F3D56"/>
<path d="M412.272 328.559H436.459C436.659 328.559 436.822 328.398 436.822 328.198V327.059C436.822 326.859 436.659 326.697 436.459 326.697H412.272C412.071 326.697 411.909 326.859 411.909 327.059V328.198C411.909 328.398 412.071 328.559 412.272 328.559Z" fill="#3F3D56"/>
<path d="M386.646 265.797H384.532C383.891 265.797 383.371 266.315 383.371 266.954C383.371 267.593 383.891 268.11 384.532 268.11H386.646C387.287 268.11 387.807 267.593 387.807 266.954C387.807 266.315 387.287 265.797 386.646 265.797Z" fill="white"/>
<path d="M410.827 265.797H408.713C408.072 265.797 407.552 266.315 407.552 266.954C407.552 267.593 408.072 268.11 408.713 268.11H410.827C411.468 268.11 411.988 267.593 411.988 266.954C411.988 266.315 411.468 265.797 410.827 265.797Z" fill="white"/>
<path d="M417.678 265.797H415.564C414.923 265.797 414.403 266.315 414.403 266.954C414.403 267.593 414.923 268.11 415.564 268.11H417.678C418.319 268.11 418.839 267.593 418.839 266.954C418.839 266.315 418.319 265.797 417.678 265.797Z" fill="white"/>
<path d="M404.25 265.604H391.109C390.468 265.604 389.948 266.122 389.948 266.761C389.948 267.4 390.468 267.918 391.109 267.918H404.25C404.891 267.918 405.41 267.4 405.41 266.761C405.41 266.122 404.891 265.604 404.25 265.604Z" fill="white"/>
<path d="M436.491 265.604H423.35C422.709 265.604 422.19 266.122 422.19 266.761C422.19 267.4 422.709 267.918 423.35 267.918H436.491C437.132 267.918 437.652 267.4 437.652 266.761C437.652 266.122 437.132 265.604 436.491 265.604Z" fill="white"/>
<path d="M393.094 271.018H390.98C390.339 271.018 389.819 271.536 389.819 272.175C389.819 272.814 390.339 273.332 390.98 273.332H393.094C393.735 273.332 394.255 272.814 394.255 272.175C394.255 271.536 393.735 271.018 393.094 271.018Z" fill="white"/>
<path d="M417.275 271.018H415.161C414.52 271.018 414 271.536 414 272.175C414 272.814 414.52 273.332 415.161 273.332H417.275C417.916 273.332 418.436 272.814 418.436 272.175C418.436 271.536 417.916 271.018 417.275 271.018Z" fill="white"/>
<path d="M424.126 271.018H422.012C421.371 271.018 420.852 271.536 420.852 272.175C420.852 272.814 421.371 273.332 422.012 273.332H424.126C424.767 273.332 425.287 272.814 425.287 272.175C425.287 271.536 424.767 271.018 424.126 271.018Z" fill="white"/>
<path d="M410.698 270.825H397.557C396.916 270.825 396.397 271.343 396.397 271.982C396.397 272.621 396.916 273.139 397.557 273.139H410.698C411.339 273.139 411.859 272.621 411.859 271.982C411.859 271.343 411.339 270.825 410.698 270.825Z" fill="white"/>
<path d="M442.939 270.825H429.798C429.157 270.825 428.638 271.343 428.638 271.982C428.638 272.621 429.157 273.139 429.798 273.139H442.939C443.58 273.139 444.1 272.621 444.1 271.982C444.1 271.343 443.58 270.825 442.939 270.825Z" fill="white"/>
<path d="M399.543 276.239H397.428C396.787 276.239 396.268 276.757 396.268 277.396C396.268 278.035 396.787 278.553 397.428 278.553H399.543C400.184 278.553 400.703 278.035 400.703 277.396C400.703 276.757 400.184 276.239 399.543 276.239Z" fill="white"/>
<path d="M423.724 276.239H421.609C420.968 276.239 420.449 276.757 420.449 277.396C420.449 278.035 420.968 278.553 421.609 278.553H423.724C424.365 278.553 424.884 278.035 424.884 277.396C424.884 276.757 424.365 276.239 423.724 276.239Z" fill="white"/>
<path d="M430.575 276.239H428.46C427.819 276.239 427.3 276.757 427.3 277.396C427.3 278.035 427.819 278.553 428.46 278.553H430.575C431.216 278.553 431.735 278.035 431.735 277.396C431.735 276.757 431.216 276.239 430.575 276.239Z" fill="white"/>
<path d="M417.146 276.046H404.006C403.365 276.046 402.845 276.564 402.845 277.203C402.845 277.842 403.365 278.36 404.006 278.36H417.146C417.787 278.36 418.307 277.842 418.307 277.203C418.307 276.564 417.787 276.046 417.146 276.046Z" fill="white"/>
<path d="M449.387 276.046H436.247C435.606 276.046 435.086 276.564 435.086 277.203C435.086 277.842 435.606 278.36 436.247 278.36H449.387C450.028 278.36 450.548 277.842 450.548 277.203C450.548 276.564 450.028 276.046 449.387 276.046Z" fill="white"/>
<path d="M405.991 281.46H403.877C403.236 281.46 402.716 281.978 402.716 282.617C402.716 283.256 403.236 283.774 403.877 283.774H405.991C406.632 283.774 407.152 283.256 407.152 282.617C407.152 281.978 406.632 281.46 405.991 281.46Z" fill="white"/>
<path d="M430.172 281.46H428.057C427.416 281.46 426.897 281.978 426.897 282.617C426.897 283.256 427.416 283.774 428.057 283.774H430.172C430.813 283.774 431.332 283.256 431.332 282.617C431.332 281.978 430.813 281.46 430.172 281.46Z" fill="white"/>
<path d="M437.023 281.46H434.909C434.268 281.46 433.748 281.978 433.748 282.617C433.748 283.256 434.268 283.774 434.909 283.774H437.023C437.664 283.774 438.184 283.256 438.184 282.617C438.184 281.978 437.664 281.46 437.023 281.46Z" fill="white"/>
<path d="M423.594 281.267H410.454C409.813 281.267 409.293 281.785 409.293 282.424C409.293 283.063 409.813 283.581 410.454 283.581H423.594C424.235 283.581 424.755 283.063 424.755 282.424C424.755 281.785 424.235 281.267 423.594 281.267Z" fill="white"/>
<path d="M410.827 302.221H408.713C408.072 302.221 407.552 302.739 407.552 303.378C407.552 304.017 408.072 304.535 408.713 304.535H410.827C411.468 304.535 411.988 304.017 411.988 303.378C411.988 302.739 411.468 302.221 410.827 302.221Z" fill="white"/>
<path d="M417.678 302.221H415.564C414.923 302.221 414.403 302.739 414.403 303.378C414.403 304.017 414.923 304.535 415.564 304.535H417.678C418.319 304.535 418.839 304.017 418.839 303.378C418.839 302.739 418.319 302.221 417.678 302.221Z" fill="white"/>
<path d="M436.491 302.414H423.35C422.709 302.414 422.19 302.932 422.19 303.571C422.19 304.21 422.709 304.728 423.35 304.728H436.491C437.132 304.728 437.652 304.21 437.652 303.571C437.652 302.932 437.132 302.414 436.491 302.414Z" fill="white"/>
<path d="M386.646 302.221H384.532C383.891 302.221 383.371 302.739 383.371 303.378C383.371 304.017 383.891 304.535 384.532 304.535H386.646C387.287 304.535 387.807 304.017 387.807 303.378C387.807 302.739 387.287 302.221 386.646 302.221Z" fill="white"/>
<path d="M404.25 302.414H391.109C390.468 302.414 389.948 302.932 389.948 303.571C389.948 304.21 390.468 304.728 391.109 304.728H404.25C404.891 304.728 405.41 304.21 405.41 303.571C405.41 302.932 404.891 302.414 404.25 302.414Z" fill="white"/>
<path d="M393.094 297H390.98C390.339 297 389.819 297.518 389.819 298.157C389.819 298.796 390.339 299.314 390.98 299.314H393.094C393.735 299.314 394.255 298.796 394.255 298.157C394.255 297.518 393.735 297 393.094 297Z" fill="white"/>
<path d="M417.275 297H415.161C414.52 297 414 297.518 414 298.157C414 298.796 414.52 299.314 415.161 299.314H417.275C417.916 299.314 418.436 298.796 418.436 298.157C418.436 297.518 417.916 297 417.275 297Z" fill="white"/>
<path d="M424.126 297H422.012C421.371 297 420.852 297.518 420.852 298.157C420.852 298.796 421.371 299.314 422.012 299.314H424.126C424.767 299.314 425.287 298.796 425.287 298.157C425.287 297.518 424.767 297 424.126 297Z" fill="white"/>
<path d="M410.698 297.193H397.557C396.916 297.193 396.397 297.711 396.397 298.35C396.397 298.989 396.916 299.507 397.557 299.507H410.698C411.339 299.507 411.859 298.989 411.859 298.35C411.859 297.711 411.339 297.193 410.698 297.193Z" fill="white"/>
<path d="M399.543 291.779H397.428C396.787 291.779 396.268 292.297 396.268 292.936C396.268 293.575 396.787 294.093 397.428 294.093H399.543C400.184 294.093 400.703 293.575 400.703 292.936C400.703 292.297 400.184 291.779 399.543 291.779Z" fill="white"/>
<path d="M423.724 291.779H421.609C420.968 291.779 420.449 292.297 420.449 292.936C420.449 293.575 420.968 294.093 421.609 294.093H423.724C424.365 294.093 424.884 293.575 424.884 292.936C424.884 292.297 424.365 291.779 423.724 291.779Z" fill="white"/>
<path d="M430.575 291.779H428.46C427.819 291.779 427.3 292.297 427.3 292.936C427.3 293.575 427.819 294.093 428.46 294.093H430.575C431.216 294.093 431.735 293.575 431.735 292.936C431.735 292.297 431.216 291.779 430.575 291.779Z" fill="white"/>
<path d="M417.146 291.972H404.006C403.365 291.972 402.845 292.49 402.845 293.129C402.845 293.768 403.365 294.285 404.006 294.285H417.146C417.787 294.285 418.307 293.768 418.307 293.129C418.307 292.49 417.787 291.972 417.146 291.972Z" fill="white"/>
<path d="M405.991 286.558H403.877C403.236 286.558 402.716 287.076 402.716 287.715C402.716 288.354 403.236 288.872 403.877 288.872H405.991C406.632 288.872 407.152 288.354 407.152 287.715C407.152 287.076 406.632 286.558 405.991 286.558Z" fill="white"/>
<path d="M430.172 286.558H428.057C427.416 286.558 426.897 287.076 426.897 287.715C426.897 288.354 427.416 288.872 428.057 288.872H430.172C430.813 288.872 431.332 288.354 431.332 287.715C431.332 287.076 430.813 286.558 430.172 286.558Z" fill="white"/>
<path d="M437.023 286.558H434.909C434.268 286.558 433.748 287.076 433.748 287.715C433.748 288.354 434.268 288.872 434.909 288.872H437.023C437.664 288.872 438.184 288.354 438.184 287.715C438.184 287.076 437.664 286.558 437.023 286.558Z" fill="white"/>
<path d="M423.594 286.751H410.454C409.813 286.751 409.293 287.269 409.293 287.908C409.293 288.547 409.813 289.064 410.454 289.064H423.594C424.235 289.064 424.755 288.547 424.755 287.908C424.755 287.269 424.235 286.751 423.594 286.751Z" fill="white"/>
<path d="M375.406 363.41L365.48 347.775L396.634 323.026L409.493 308.829C411.164 306.985 413.291 305.61 415.662 304.841C418.033 304.073 420.565 303.938 423.005 304.45C425.445 304.962 427.707 306.103 429.566 307.759C431.424 309.416 432.814 311.529 433.596 313.888C434.755 317.385 434.506 321.193 432.901 324.509C431.296 327.826 428.461 330.391 424.994 331.664L404.66 339.129L375.406 363.41Z" fill="#FFB6B6"/>
<path d="M142.521 250.048V326.037H195.942V250.048C195.943 249.501 195.768 248.969 195.442 248.529C195.117 248.089 194.659 247.764 194.135 247.603C193.888 247.522 193.629 247.482 193.369 247.484H145.101C144.763 247.484 144.428 247.549 144.115 247.678C143.802 247.807 143.518 247.995 143.278 248.233C143.039 248.471 142.848 248.754 142.719 249.066C142.589 249.377 142.522 249.711 142.521 250.048ZM163.369 276.158C163.383 274.66 163.99 273.228 165.058 272.174C166.126 271.119 167.568 270.528 169.072 270.528C170.575 270.528 172.018 271.119 173.086 272.174C174.153 273.228 174.76 274.66 174.774 276.158V284.975C174.767 286.477 174.162 287.915 173.094 288.975C172.025 290.034 170.579 290.629 169.072 290.629C167.564 290.629 166.118 290.034 165.05 288.975C163.981 287.915 163.377 286.477 163.369 284.975V276.158Z" fill="#2F2E41"/>
<path d="M142.358 323.607V330.935C142.359 331.314 142.51 331.678 142.779 331.947C143.048 332.216 143.412 332.369 143.793 332.372H194.67C195.052 332.37 195.417 332.218 195.686 331.949C195.954 331.679 196.105 331.315 196.105 330.935V323.607H142.358Z" fill="#3F3D56"/>
<path d="M58.4836 135.56V274.306C58.485 276.074 59.1905 277.769 60.4451 279.019C61.6997 280.27 63.4009 280.973 65.1751 280.974H271.496C273.27 280.973 274.972 280.27 276.226 279.019C277.481 277.769 278.186 276.074 278.188 274.306V135.56C278.183 133.794 277.477 132.101 276.223 130.852C274.968 129.604 273.269 128.902 271.496 128.899H65.1751C63.4024 128.902 61.7028 129.604 60.4486 130.852C59.1945 132.101 58.4879 133.794 58.4836 135.56Z" fill="#3F3D56"/>
<path d="M63.3238 137.287V272.594C63.3254 273.539 63.7027 274.444 64.373 275.112C65.0434 275.78 65.952 276.156 66.9 276.158H269.779C270.727 276.156 271.635 275.78 272.306 275.112C272.976 274.444 273.353 273.539 273.355 272.594V137.287C273.355 136.341 272.978 135.434 272.308 134.764C271.637 134.095 270.728 133.717 269.779 133.715H66.9C65.9509 133.717 65.0413 134.095 64.3709 134.764C63.7005 135.434 63.3239 136.341 63.3238 137.287Z" fill="white"/>
<path d="M100.975 331.876C101.181 332.134 101.444 332.342 101.742 332.484C102.041 332.627 102.368 332.7 102.7 332.698H223.399C223.729 332.698 224.055 332.624 224.353 332.482C224.651 332.341 224.913 332.135 225.121 331.879C225.329 331.624 225.477 331.325 225.555 331.005C225.633 330.686 225.638 330.353 225.57 330.031L223.697 321.162C223.619 320.8 223.452 320.464 223.21 320.183C222.969 319.902 222.66 319.686 222.314 319.554C222.063 319.456 221.795 319.406 221.526 319.406H104.566C104.296 319.406 104.029 319.456 103.778 319.554C103.431 319.686 103.123 319.902 102.881 320.183C102.64 320.464 102.472 320.8 102.395 321.162L100.521 330.031C100.454 330.353 100.461 330.685 100.539 331.004C100.617 331.323 100.766 331.621 100.975 331.876Z" fill="#2F2E41"/>
<path d="M263.195 152.355H73.3619C73.1645 152.35 72.9768 152.269 72.8388 152.128C72.7008 151.988 72.6235 151.799 72.6235 151.602C72.6235 151.406 72.7008 151.217 72.8388 151.076C72.9768 150.936 73.1645 150.854 73.3619 150.85H263.195C263.392 150.854 263.58 150.936 263.718 151.076C263.856 151.217 263.933 151.406 263.933 151.602C263.933 151.799 263.856 151.988 263.718 152.128C263.58 152.269 263.392 152.35 263.195 152.355Z" fill="#3F3D56"/>
<path d="M86.2841 147.009C88.7274 147.009 90.7082 144.991 90.7082 142.502C90.7082 140.013 88.7274 137.995 86.2841 137.995C83.8407 137.995 81.8599 140.013 81.8599 142.502C81.8599 144.991 83.8407 147.009 86.2841 147.009Z" fill="#3F3D56"/>
<path d="M101.567 147.009C104.011 147.009 105.992 144.991 105.992 142.502C105.992 140.013 104.011 137.995 101.567 137.995C99.1241 137.995 97.1433 140.013 97.1433 142.502C97.1433 144.991 99.1241 147.009 101.567 147.009Z" fill="#3F3D56"/>
<path d="M116.851 147.009C119.294 147.009 121.275 144.991 121.275 142.502C121.275 140.013 119.294 137.995 116.851 137.995C114.407 137.995 112.427 140.013 112.427 142.502C112.427 144.991 114.407 147.009 116.851 147.009Z" fill="#3F3D56"/>
<path d="M253.991 139.109H243.136C242.922 139.114 242.718 139.203 242.568 139.356C242.418 139.509 242.334 139.714 242.334 139.928C242.334 140.142 242.418 140.347 242.568 140.5C242.718 140.653 242.922 140.742 243.136 140.747H253.991C254.207 140.744 254.413 140.656 254.565 140.503C254.717 140.35 254.802 140.143 254.802 139.928C254.802 139.713 254.717 139.506 254.565 139.353C254.413 139.2 254.207 139.112 253.991 139.109Z" fill="#3F3D56"/>
<path d="M253.991 142.184H243.136C242.922 142.189 242.717 142.277 242.567 142.43C242.417 142.583 242.333 142.789 242.333 143.003C242.333 143.217 242.417 143.422 242.567 143.576C242.717 143.729 242.922 143.817 243.136 143.822H253.991C254.208 143.819 254.414 143.732 254.566 143.578C254.718 143.425 254.803 143.218 254.803 143.003C254.803 142.787 254.718 142.581 254.566 142.427C254.414 142.274 254.208 142.187 253.991 142.184Z" fill="#3F3D56"/>
<path d="M253.991 145.259H243.136C242.922 145.264 242.718 145.352 242.568 145.505C242.418 145.658 242.334 145.864 242.334 146.078C242.334 146.292 242.418 146.497 242.568 146.65C242.718 146.803 242.922 146.891 243.136 146.896H253.991C254.207 146.893 254.413 146.806 254.565 146.653C254.717 146.499 254.802 146.293 254.802 146.078C254.802 145.862 254.717 145.656 254.565 145.503C254.413 145.35 254.207 145.262 253.991 145.259Z" fill="#3F3D56"/>
<path d="M515.688 326.823C516.015 327.773 516.637 328.596 517.463 329.172C518.289 329.749 519.277 330.05 520.285 330.032L539.982 329.527C540.997 329.507 541.979 329.16 542.781 328.538C543.582 327.916 544.16 327.053 544.428 326.076L547.216 296.375C548.205 296.821 549.281 297.041 550.367 297.02C551.31 296.996 552.239 296.788 553.101 296.406C553.963 296.025 554.741 295.478 555.391 294.797C556.042 294.116 556.551 293.313 556.89 292.436C557.229 291.559 557.391 290.624 557.367 289.684C557.344 288.744 557.134 287.818 556.752 286.959C556.369 286.1 555.82 285.324 555.137 284.677C554.453 284.029 553.648 283.521 552.768 283.184C551.888 282.846 550.949 282.684 550.006 282.708C549.572 282.706 549.139 282.751 548.715 282.841C548.254 282.344 547.693 281.948 547.069 281.68C546.445 281.412 545.771 281.276 545.091 281.283L514.793 282.063C514.542 282.072 514.292 282.103 514.046 282.155C513.382 282.279 512.751 282.543 512.198 282.929C511.644 283.316 511.18 283.816 510.837 284.396C510.494 284.976 510.279 285.623 510.208 286.293C510.136 286.963 510.21 287.64 510.423 288.279L515.688 326.823ZM547.787 294.358L549.771 287.28C549.996 286.462 550.001 285.6 549.786 284.78C549.882 284.779 549.967 284.734 550.063 284.734C551.423 284.706 552.739 285.216 553.722 286.153C554.704 287.091 555.274 288.378 555.306 289.733C555.338 291.088 554.829 292.401 553.891 293.383C552.954 294.364 551.664 294.936 550.304 294.971C549.425 294.999 548.555 294.787 547.787 294.358Z" fill="#2F2E41"/>
<path d="M514.046 282.155C514.692 285.833 521.949 288.419 530.675 287.97C538.7 287.601 545.261 284.793 546.463 281.465C546.018 281.334 545.555 281.273 545.091 281.283L514.793 282.063C514.542 282.072 514.292 282.103 514.046 282.155Z" fill="#3F3D56"/>
<path d="M532.274 310.502C532.314 310.492 532.352 310.475 532.386 310.452L536.664 307.662C536.716 307.629 536.758 307.583 536.788 307.529C536.817 307.475 536.832 307.414 536.832 307.353C536.832 307.291 536.817 307.231 536.788 307.176C536.758 307.122 536.716 307.076 536.664 307.043L532.218 304.141C532.177 304.114 532.132 304.095 532.084 304.086C532.036 304.077 531.986 304.077 531.938 304.087C531.89 304.097 531.845 304.116 531.804 304.143C531.764 304.171 531.729 304.206 531.702 304.247C531.676 304.287 531.657 304.333 531.648 304.381C531.639 304.429 531.639 304.478 531.65 304.526C531.66 304.574 531.679 304.619 531.707 304.659C531.734 304.699 531.77 304.734 531.811 304.76L535.782 307.352L531.98 309.833C531.906 309.881 531.852 309.953 531.827 310.037C531.802 310.121 531.807 310.211 531.843 310.291C531.878 310.372 531.941 310.437 532.02 310.475C532.099 310.514 532.189 310.523 532.274 310.502H532.274Z" fill="#6C63FF"/>
<path d="M525.518 310.812C525.59 310.794 525.655 310.755 525.704 310.7C525.754 310.645 525.785 310.576 525.795 310.503C525.806 310.43 525.793 310.356 525.761 310.29C525.728 310.223 525.676 310.168 525.612 310.132L521.669 307.879L525.48 305.058C525.519 305.029 525.552 304.993 525.577 304.951C525.602 304.909 525.619 304.863 525.626 304.815C525.633 304.767 525.631 304.718 525.619 304.671C525.607 304.624 525.586 304.579 525.557 304.54C525.528 304.501 525.491 304.468 525.449 304.443C525.407 304.418 525.361 304.402 525.313 304.395C525.265 304.388 525.215 304.39 525.168 304.402C525.121 304.414 525.076 304.435 525.037 304.464L520.77 307.622C520.721 307.659 520.681 307.707 520.655 307.763C520.629 307.819 520.617 307.88 520.621 307.941C520.624 308.003 520.643 308.062 520.676 308.114C520.708 308.167 520.753 308.21 520.807 308.241L525.242 310.774C525.326 310.822 525.425 310.836 525.518 310.812Z" fill="#6C63FF"/>
<path d="M531.849 312.947C531.885 312.938 531.919 312.923 531.951 312.904C531.993 312.879 532.029 312.845 532.058 312.806C532.087 312.767 532.107 312.722 532.119 312.675C532.131 312.628 532.133 312.579 532.125 312.531C532.118 312.482 532.101 312.436 532.075 312.395L526.012 302.46C525.96 302.376 525.878 302.316 525.782 302.293C525.686 302.27 525.585 302.286 525.501 302.337C525.417 302.388 525.356 302.47 525.333 302.566C525.31 302.661 525.325 302.762 525.377 302.846L531.44 312.78C531.481 312.848 531.543 312.901 531.617 312.931C531.691 312.96 531.772 312.966 531.849 312.947Z" fill="#6C63FF"/>
<path d="M190.96 193.253H158.104C156.764 193.253 155.677 194.336 155.677 195.672V198.871C155.677 200.206 156.764 201.289 158.104 201.289H190.96C192.3 201.289 193.387 200.206 193.387 198.871V195.672C193.387 194.336 192.3 193.253 190.96 193.253Z" fill="#56468F"/>
<path d="M210.111 209.325H138.953C137.612 209.325 136.526 210.408 136.526 211.744V214.942C136.526 216.278 137.612 217.361 138.953 217.361H210.111C211.452 217.361 212.538 216.278 212.538 214.942V211.744C212.538 210.408 211.452 209.325 210.111 209.325Z" fill="#E6E6E6"/>
<path d="M210.111 225.397H138.953C137.612 225.397 136.526 226.479 136.526 227.815V231.014C136.526 232.35 137.612 233.433 138.953 233.433H210.111C211.452 233.433 212.538 232.35 212.538 231.014V227.815C212.538 226.479 211.452 225.397 210.111 225.397Z" fill="#E6E6E6"/>
<path d="M216.144 279.214L216.305 279.722L216.313 279.738L221.165 294.437L226.746 311.375L237.246 343.206L237.348 348.151V348.168L238.128 387.944L235.965 393.336L238.399 402.177C238.399 402.177 237.28 388.813 231.275 396.488C227.874 400.849 223.896 405.312 220.63 409.496C225.389 411.415 230.223 413.15 235.134 414.703C236.194 415.041 237.263 415.362 238.331 415.683C238.56 415.751 238.789 415.818 239.018 415.886C255.297 420.683 272.126 423.379 289.094 423.907C289.976 423.932 290.841 423.949 291.681 423.966C291.978 423.975 292.266 423.983 292.554 423.983C293.504 423.992 294.446 424 295.396 424C297.312 424 299.221 423.972 301.121 423.916C315.183 423.521 329.163 421.636 342.825 418.295C342.731 412.674 342.477 406.107 342.112 399.091C341.943 395.651 338.134 391.924 337.905 388.323C337.744 385.618 341.162 383.074 340.984 380.327C339.831 363.414 338.389 369.907 337.32 357.93C337.21 356.755 337.108 355.631 337.015 354.558C336.328 346.866 335.853 342.057 335.853 342.057L340.416 313.395L347.583 268.396L347.031 267.491L346.412 267.187L308.61 248.541L306.557 243.301C305.959 241.791 304.922 240.494 303.578 239.577C302.234 238.66 300.646 238.164 299.017 238.154L274.115 238.052C272.823 238.046 271.548 238.348 270.396 238.931C269.244 239.515 268.248 240.364 267.491 241.408L260.748 250.714L216.144 279.214Z" fill="#3F3D56"/>
<path d="M242.988 336.123L237.347 348.151L233.497 356.366L226.873 390.928L223.556 394.435L220.715 382.018L190.977 388.598C190.001 383.197 190.716 388.781 190.114 382.856C190.283 382.687 190.461 382.518 190.639 382.348C191.114 381.909 191.513 381.495 191.505 381.098C191.165 360.66 192.183 325.879 200.682 304.808C202.013 301.367 203.768 298.105 205.906 295.096C206.076 294.868 206.237 294.64 206.398 294.412C210.317 288.943 212.793 283.559 216.305 279.73V279.722C216.327 279.704 216.346 279.684 216.364 279.662C216.377 279.656 216.388 279.648 216.398 279.637L240.52 266.891L241.554 295.865L242.292 316.692L242.988 336.123Z" fill="#3F3D56"/>
<path d="M329.966 339.539L337.011 354.562L339.47 359.793L346.093 394.351L349.398 397.85L352.246 385.436L353.584 385.162L377.717 380.182L384.751 402.444C386.336 399.811 386.961 396.714 386.519 393.676C386.077 390.638 384.596 387.844 382.326 385.769C381.846 385.336 381.446 384.914 381.457 384.515C381.857 360.477 380.382 316.584 367.057 298.519C362.825 292.786 360.286 287.076 356.592 283.086C356.581 283.075 356.581 283.064 356.569 283.064L347.579 268.395L347.03 267.494L346.413 267.187L329.966 339.539Z" fill="#3F3D56"/>
<path d="M287.286 230.99C305.582 230.99 320.415 216.209 320.415 197.976C320.415 179.742 305.582 164.961 287.286 164.961C268.989 164.961 254.156 179.742 254.156 197.976C254.156 216.209 268.989 230.99 287.286 230.99Z" fill="#FFB6B6"/>
<path d="M332.063 174.915C331.807 174.642 331.497 174.423 331.153 174.271C330.81 174.12 330.439 174.039 330.063 174.033L330.561 172.655C330.724 172.221 330.768 171.752 330.689 171.295C330.609 170.839 330.41 170.411 330.11 170.057C329.81 169.703 329.422 169.434 328.984 169.279C328.546 169.123 328.074 169.087 327.617 169.173L325.803 169.521L325.974 168.314C326.04 167.864 325.987 167.405 325.82 166.981C325.654 166.558 325.38 166.186 325.025 165.9C324.67 165.614 324.247 165.426 323.796 165.353C323.346 165.28 322.885 165.325 322.457 165.483C322.068 165.636 321.65 165.7 321.233 165.67C320.817 165.641 320.412 165.518 320.048 165.313C319.684 165.113 319.367 164.837 319.12 164.503C318.874 164.169 318.703 163.785 318.621 163.379L317.989 160.341L317.922 160.178C314.844 155.066 308.926 151.346 301.684 149.983C295.238 148.76 288.628 149.383 282.256 149.968C279.728 150.205 276.873 150.472 274.494 151.924C272.472 153.169 270.762 155.658 271.111 158.17C264.829 156.251 258.093 160.082 254.754 164.913C250.799 170.662 250.152 177.864 250.048 183.495C249.765 196.817 252.524 207.716 258.226 215.896C258.643 216.488 258.747 217.726 259.572 218.141L259.401 217.867C260.323 218.326 261.26 219.067 260.91 219.86C259.907 222.142 266.576 227.187 271.275 228.854C279.847 231.9 291.245 231.64 299.26 230.544L299.543 228.654C302.435 228.262 304.472 227.513 305.045 226.343C306.056 225.483 306.918 224.713 307.669 224.001L307.677 223.994C307.691 223.979 307.721 223.957 307.736 223.942C311.357 220.482 312.197 218.511 312.576 215.51C312.94 212.569 312.294 209.583 311.632 206.893C325.565 209.042 306.145 192.105 319.126 188.83C319.275 188.784 319.427 188.747 319.58 188.719C319.959 188.63 320.338 188.541 320.703 188.437C322.459 187.962 324.14 187.246 325.699 186.311C329.327 184.11 330.524 181.191 332.398 177.901C332.668 177.433 332.782 176.891 332.721 176.353C332.661 175.816 332.431 175.313 332.063 174.915Z" fill="#2F2E41"/>
<path d="M404.458 341.89C404.45 343.187 404.436 345.002 404.376 347.247C404.369 347.558 404.361 347.877 404.354 348.203C404.257 352.33 404.16 355.79 404.004 359.635C403.997 359.902 403.989 360.161 403.975 360.428C403.766 365.792 403.439 372.038 402.874 381.93C401.826 400.201 399.997 384.441 398.16 390.85C398.071 391.169 397.974 391.547 397.885 391.991C397.607 393.604 397.138 395.179 396.487 396.681C395.513 397.259 394.51 397.815 393.521 398.371C390.703 399.934 387.841 401.438 384.956 402.868C383.335 403.668 381.707 404.454 380.071 405.209C379.811 405.328 379.558 405.447 379.305 405.558C370.929 409.419 362.297 412.701 353.469 415.382C351.744 415.901 350.026 416.405 348.286 416.872C346.472 417.375 344.658 417.85 342.822 418.294C329.16 421.636 315.181 423.522 301.119 423.918C299.223 423.977 297.312 423.999 295.394 423.999C294.442 423.999 293.505 423.992 292.554 423.984C292.264 423.984 291.974 423.977 291.684 423.97C290.844 423.947 289.974 423.933 289.096 423.91C272.129 423.383 255.3 420.686 239.022 415.886L238.33 415.686C237.26 415.36 236.197 415.041 235.133 414.701C230.226 413.152 225.391 411.418 220.628 409.499C216.992 408.04 213.398 406.474 209.847 404.802C209.814 404.793 209.784 404.778 209.758 404.757C209.014 404.417 208.263 404.061 207.52 403.698C207.423 403.646 207.319 403.594 207.215 403.542C204.442 402.194 201.698 400.781 198.984 399.304C196.702 394.081 193.49 393.08 191.497 388.487C190.917 387.122 190.498 385.695 190.248 384.234C190.248 384.219 190.241 384.204 190.241 384.182C190.449 386.938 189.356 379.292 190.233 384.152C190.226 384.063 190.219 383.967 190.211 383.856C190.189 383.589 190.159 383.263 190.114 382.856C187.564 358.042 187.728 329.665 186.62 306.281C186.546 304.77 186.469 303.322 186.39 301.939C186.367 301.48 186.338 301.028 186.308 300.583C186.36 300.45 186.419 300.309 186.486 300.176C186.5 300.137 186.518 300.1 186.538 300.065C186.56 300.019 186.585 299.974 186.613 299.931C186.627 299.909 186.65 299.88 186.665 299.857C186.675 299.832 186.688 299.807 186.702 299.783C186.769 299.679 186.843 299.568 186.925 299.465C186.962 299.42 186.992 299.383 187.029 299.346C187.055 299.308 187.085 299.273 187.118 299.242C187.141 299.207 187.168 299.174 187.2 299.146C187.23 299.116 187.259 299.079 187.297 299.042C187.312 299.019 187.333 298.999 187.356 298.983C187.415 298.916 187.48 298.854 187.549 298.798C187.815 298.555 188.098 298.332 188.397 298.131C188.501 298.064 188.613 297.998 188.717 297.924C189.466 297.477 190.255 297.1 191.074 296.797C191.356 296.694 191.639 296.597 191.943 296.494C192.055 296.464 192.159 296.427 192.271 296.39C192.434 296.338 192.598 296.286 192.769 296.249C193.616 295.997 194.531 295.782 195.52 295.582C195.639 295.56 195.765 295.538 195.891 295.508C196.07 295.471 196.256 295.441 196.442 295.412C196.694 295.367 196.955 295.323 197.215 295.278C199.423 294.93 201.929 294.671 204.694 294.5C204.955 294.486 205.215 294.471 205.475 294.456C205.78 294.441 206.085 294.426 206.397 294.412C206.657 294.397 206.925 294.389 207.193 294.382C207.453 294.367 207.721 294.36 207.996 294.352C208.747 294.33 209.52 294.308 210.308 294.293C212.553 294.249 214.918 294.263 217.401 294.315C218.553 294.345 219.728 294.374 220.933 294.426C221.014 294.426 221.089 294.434 221.163 294.434C222.211 294.471 223.267 294.515 224.353 294.575C225.111 294.612 225.877 294.649 226.643 294.693C227.364 294.738 228.092 294.782 228.828 294.834C229.401 294.864 229.973 294.908 230.553 294.945C231.044 294.982 231.535 295.019 232.025 295.049L232.695 295.093C233.059 295.123 233.423 295.145 233.795 295.182C234.613 295.249 235.431 295.315 236.263 295.382C237.089 295.456 237.929 295.53 238.769 295.604C239.609 295.679 240.457 295.76 241.304 295.842C241.394 295.849 241.475 295.856 241.557 295.864C242.33 295.945 243.104 296.019 243.884 296.101C244.063 296.116 244.249 296.13 244.427 296.153C245.171 296.227 245.93 296.314 246.681 296.394C246.912 296.419 247.141 296.443 247.372 296.468C247.961 296.532 248.541 296.587 249.133 296.657C249.914 296.745 250.71 296.827 251.483 296.931C252.085 296.997 252.687 297.064 253.289 297.138C254.234 297.249 255.193 297.368 256.152 297.494C256.516 297.538 256.881 297.583 257.245 297.635C259.981 297.975 262.747 298.353 265.557 298.746C269.817 299.346 274.145 299.998 278.502 300.702C282.866 301.406 287.255 302.149 291.669 302.932C292.784 303.132 293.899 303.332 295.022 303.54C295.528 303.636 296.033 303.732 296.539 303.829C297.401 303.984 298.264 304.147 299.126 304.31C299.989 304.473 300.851 304.636 301.714 304.807C302.74 305.007 303.773 305.207 304.799 305.407C311.558 306.74 318.279 308.163 324.836 309.652C325.914 309.897 326.993 310.149 328.063 310.393C330.204 310.89 332.326 311.393 334.428 311.905C335.007 312.038 335.58 312.179 336.152 312.32C337.58 312.675 339.008 313.031 340.413 313.394L340.658 313.461C341.692 313.713 342.703 313.972 343.714 314.239C346.1 314.861 348.447 315.491 350.755 316.128C352.286 316.55 353.801 316.978 355.298 317.41C357.536 318.054 359.729 318.706 361.863 319.366C362.391 319.529 362.918 319.692 363.439 319.847C365 320.329 366.539 320.818 368.034 321.307C369.223 321.692 370.383 322.085 371.528 322.478C372.673 322.87 373.796 323.263 374.896 323.656C375.603 323.908 376.301 324.174 377 324.426C378.004 324.797 378.993 325.167 379.959 325.538C380.257 325.649 380.547 325.767 380.837 325.879C381.023 325.96 381.201 326.027 381.38 326.101C381.729 326.242 382.086 326.375 382.428 326.516C382.777 326.649 383.119 326.79 383.461 326.938C383.796 327.071 384.138 327.212 384.465 327.353C384.8 327.486 385.127 327.627 385.454 327.775C385.729 327.886 385.997 328.005 386.257 328.124C386.785 328.353 387.313 328.583 387.826 328.82C388.078 328.939 388.331 329.05 388.584 329.168L389.164 329.435C389.246 329.479 389.328 329.517 389.409 329.554C389.595 329.642 389.788 329.739 389.974 329.828C390.406 330.028 390.829 330.243 391.246 330.443C391.803 330.724 392.346 331.006 392.867 331.28C393.394 331.561 393.907 331.843 394.398 332.117C394.48 332.162 394.554 332.206 394.636 332.251C394.748 332.31 394.859 332.376 394.971 332.436C395.35 332.651 395.714 332.873 396.079 333.088C396.792 333.525 397.469 333.955 398.101 334.384C398.242 334.481 398.376 334.577 398.517 334.666C398.986 334.999 399.432 335.325 399.848 335.659C399.848 335.666 399.848 335.666 399.855 335.666C399.997 335.77 400.131 335.881 400.264 335.985C400.376 336.088 400.495 336.177 400.606 336.281C400.993 336.615 401.35 336.933 401.677 337.259C401.787 337.36 401.891 337.466 401.989 337.578C402.033 337.613 402.072 337.653 402.108 337.696C402.257 337.844 402.391 337.993 402.517 338.141C402.537 338.161 402.554 338.184 402.569 338.208C402.748 338.415 402.911 338.622 403.067 338.83C403.142 338.934 403.224 339.037 403.29 339.141C403.38 339.267 403.469 339.4 403.543 339.526C403.61 339.63 403.67 339.741 403.729 339.845C403.887 340.112 404.021 340.392 404.131 340.682C404.214 340.879 404.281 341.082 404.331 341.29C404.388 341.487 404.43 341.687 404.458 341.89Z" fill="#2F2E41"/>
<path opacity="0.2" d="M404.458 341.89C404.45 343.187 404.436 345.002 404.376 347.247C404.369 347.558 404.354 347.877 404.346 348.203C404.272 351.352 404.16 355.241 404.004 359.635C403.997 359.902 403.989 360.161 403.975 360.428C403.766 365.792 403.439 372.038 402.874 381.93C401.826 400.201 399.997 384.441 398.16 390.85C393.06 387.724 387.469 384.449 381.491 381.085C380.413 380.477 379.325 379.867 378.227 379.255C366.272 372.609 352.918 365.644 338.978 358.746C338.428 358.472 337.87 358.198 337.32 357.931C305.387 342.201 270.531 326.901 242.293 316.691C236.843 314.72 231.639 312.942 226.747 311.379C216.442 308.096 207.535 305.8 200.68 304.807C193.542 303.769 188.613 304.14 186.62 306.281C186.546 304.77 186.469 303.322 186.39 301.939C186.36 301.48 186.33 301.028 186.3 300.583C186.346 300.461 186.406 300.345 186.464 300.228C186.472 300.21 186.478 300.193 186.486 300.176C186.5 300.137 186.518 300.1 186.538 300.065C186.56 300.019 186.585 299.974 186.613 299.931C186.637 299.879 186.667 299.829 186.702 299.783C186.769 299.679 186.843 299.568 186.925 299.465C186.985 299.387 187.05 299.313 187.118 299.242C187.141 299.207 187.168 299.174 187.2 299.146C187.23 299.116 187.259 299.079 187.297 299.042C187.312 299.019 187.333 298.999 187.356 298.983C187.415 298.916 187.48 298.854 187.549 298.798C187.815 298.555 188.098 298.332 188.397 298.131C188.501 298.064 188.613 297.998 188.717 297.923C189.466 297.477 190.255 297.1 191.074 296.797C191.356 296.694 191.639 296.597 191.943 296.493C192.055 296.464 192.159 296.427 192.271 296.39C192.434 296.338 192.598 296.286 192.769 296.249C193.616 295.997 194.531 295.782 195.52 295.582C195.817 295.523 196.129 295.464 196.442 295.412C196.694 295.367 196.955 295.323 197.215 295.278C199.423 294.93 201.929 294.671 204.694 294.5C204.955 294.486 205.215 294.471 205.475 294.456C205.78 294.441 206.085 294.426 206.397 294.411C206.657 294.397 206.925 294.389 207.193 294.382C207.453 294.367 207.721 294.36 207.996 294.352C208.747 294.33 209.52 294.308 210.308 294.293C212.553 294.256 214.918 294.271 217.401 294.323C218.553 294.345 219.728 294.382 220.932 294.434C221.007 294.434 221.089 294.441 221.163 294.441C222.211 294.471 223.275 294.523 224.353 294.575C225.111 294.612 225.877 294.649 226.643 294.693C227.364 294.737 228.092 294.782 228.828 294.834C229.401 294.863 229.973 294.908 230.553 294.945C231.044 294.982 231.535 295.019 232.025 295.049C232.613 295.093 233.2 295.138 233.795 295.182C234.613 295.249 235.431 295.315 236.263 295.382C237.089 295.456 237.929 295.53 238.769 295.604C239.609 295.678 240.457 295.76 241.304 295.841C241.394 295.849 241.475 295.856 241.557 295.864C242.33 295.945 243.104 296.019 243.884 296.101C248.211 296.538 252.665 297.049 257.245 297.635C259.981 297.983 262.752 298.356 265.557 298.753C269.818 299.353 274.145 300.005 278.502 300.702C282.866 301.406 287.255 302.149 291.669 302.932C292.784 303.132 293.899 303.332 295.022 303.54C296.39 303.792 297.758 304.048 299.126 304.31C299.989 304.473 300.851 304.636 301.714 304.807C302.74 305.007 303.773 305.207 304.799 305.407C311.558 306.74 318.279 308.163 324.836 309.652C325.915 309.897 326.993 310.149 328.063 310.393C330.205 310.89 332.326 311.393 334.428 311.905C335.008 312.045 335.58 312.186 336.153 312.327C337.587 312.683 339.008 313.038 340.413 313.394V313.401C340.495 313.416 340.576 313.438 340.658 313.461C341.684 313.72 342.703 313.979 343.714 314.246C346.101 314.868 348.448 315.496 350.755 316.128C352.286 316.558 353.803 316.98 355.298 317.41C357.536 318.062 359.729 318.714 361.863 319.366C362.391 319.529 362.919 319.692 363.439 319.847C365 320.336 366.532 320.823 368.034 321.307C369.223 321.692 370.383 322.085 371.528 322.478C372.673 322.87 373.796 323.263 374.896 323.656C375.61 323.908 376.309 324.167 377 324.419C378.012 324.789 378.993 325.16 379.959 325.538C380.257 325.649 380.547 325.767 380.837 325.879C381.38 326.086 381.907 326.301 382.428 326.516C382.777 326.649 383.119 326.79 383.461 326.938C383.796 327.071 384.138 327.212 384.465 327.353C384.8 327.486 385.127 327.627 385.454 327.775C385.729 327.886 385.997 328.005 386.257 328.124C386.785 328.353 387.313 328.583 387.826 328.82C388.079 328.939 388.331 329.05 388.584 329.168L389.164 329.435C389.246 329.479 389.328 329.516 389.409 329.554C390.041 329.85 390.651 330.146 391.246 330.443C391.803 330.724 392.346 331.006 392.867 331.28C393.484 331.606 394.071 331.925 394.636 332.251C394.748 332.31 394.859 332.376 394.971 332.436C395.35 332.651 395.714 332.873 396.079 333.088C396.792 333.525 397.469 333.955 398.101 334.384C398.725 334.814 399.305 335.236 399.848 335.659C399.848 335.666 399.848 335.666 399.856 335.666C400.116 335.874 400.369 336.081 400.606 336.281C400.993 336.615 401.35 336.933 401.677 337.259C401.787 337.36 401.891 337.466 401.989 337.578C402.033 337.613 402.073 337.653 402.108 337.696C402.264 337.867 402.421 338.037 402.569 338.208C402.748 338.415 402.911 338.622 403.068 338.83C403.142 338.934 403.224 339.037 403.291 339.141C403.38 339.267 403.469 339.4 403.543 339.526C403.61 339.63 403.67 339.741 403.729 339.845C403.887 340.112 404.021 340.392 404.131 340.682C404.212 340.88 404.279 341.083 404.331 341.29C404.388 341.487 404.43 341.687 404.458 341.89Z" fill="black"/>
</g>
<defs>
<clipPath id="clip0_1_80">
<rect width="585" height="424" fill="white"/>
</clipPath>
</defs>
</svg>
